<svg xmlns="http://www.w3.org/2000/svg" viewBox="0 0 64 64">
  <rect x="4" y="4" width="56" height="56" rx="12" fill="#0b1b27"/>

  <path d="M16 38c0-6 4-10 10-10 3 0 6 1 8 3l4-4c2-2 4-3 7-3h7v6h-5c-2 0-3 1-5 3l-4 4c2 2 3 5 3 8 0 6-4 10-10 10-3 0-6-1-8-3l-4 4c-2 2-4 3-7 3h-4v-6h2c2 0 3-1 5-3l4-4c-2-2-3-5-3-8z" fill="#f4f0e6"/>

  <circle cx="22" cy="38" r="2.2" fill="#0b1b27"/>
  <circle cx="31" cy="29" r="2.2" fill="#0b1b27"/>

  <rect x="44" y="24" width="10" height="6" rx="2" fill="#f4f0e6"/>
  <line x1="44" y1="25.5" x2="54" y2="25.5" stroke="#0b1b27" stroke-width="1"/>
  <line x1="44" y1="27.5" x2="54" y2="27.5" stroke="#0b1b27" stroke-width="1"/>
</svg>
